<?xml version="1.0" encoding="utf-8"?>
<!-- Generator: Adobe Illustrator 19.0.0, SVG Export Plug-In . SVG Version: 6.00 Build 0)  -->
<svg version="1.1" id="Layer_1" xmlns="http://www.w3.org/2000/svg" xmlns:xlink="http://www.w3.org/1999/xlink" x="0px" y="0px"
	 viewBox="-41 164.9 512 512" style="enable-background:new -41 164.9 512 512;" xml:space="preserve">
<style type="text/css">
	.st0{fill:rgb(243 244 246);}
</style>
<g>
	<path class="st0" d="M163.9,475.8c-6-1.7-15.8,5.2-20.9,7.8c-6.3,3.2-14.4,6.9-18.1,13.2c-4,6.9-1.9,18.3-1.9,26
		c0,19.4-0.2,38.7-1,58c-66.6-41.8-79.9-135.3-45.2-201c9.5-18.1,27.4-29.9,37.1-47c4.1-7.3,3.8-18.8,5.5-27
		c1-5.2,7.9-23.6,2.3-26.9c-3.1-1.8-7.1,1-9.7,2.5c-7.3,4.1-14.4,8.7-21,13.8c-28.3,22-50.7,51.2-64,84.6
		c-33.6,84.3-4,184.5,70,237.6c15.2,10.9,31.5,19.4,49,26c4.6,1.8,14,6.7,18.6,2.8c5.3-4.6,2-19,2.9-25.4c1.3-10.1-0.4-20.8-0.4-31
		c0-17.9,1-36,1-54v-45C168,486.4,169.7,477.4,163.9,475.8z"/>
	<path class="st0" d="M392.1,360.9c-14.1-25.5-32.3-47.4-55.1-65.5c-4.4-3.5-18.5-16.3-24.6-13.1c-5,2.7,2.1,19.4,3.2,23.6
		c2.8,11.2,2.9,25.7,8.1,36c5.7,11.3,16.8,20.1,23.5,31c30.2,49.3,30.7,111,2.1,161c-8.7,15.3-21.8,33.1-37.3,42
		c-1.4-18.1,0-36.7,0-55c0-6.8,1.8-16.7-1.3-23c-2.8-5.6-9.7-9.6-14.7-13c-5.3-3.6-17.9-13-24.9-10.4c-5.2,2-3.1,13-3.1,17.4
		c0,17.6-1,35.3-1,53v74c0,5.8-1.9,22,2.7,26.1c4.8,4.3,18.4-3.3,23.3-5.3c23.3-9.4,45-24.3,62.7-42.1
		C416,537.3,434.2,436.7,392.1,360.9z"/>
	<path class="st0" d="M315.9,462.2c5.5-1.8,6.1-10.6,7.1-15.4c3.2-16.2,2.6-33.1-2-49c-2.7-9.2-6.6-18.1-12-26
		c-4-5.9-10-11.1-12.2-18c-4-12.7-4.6-27-7.7-40c-6.8-28.9-17.5-57.7-33.2-83c-7.3-11.8-15.9-23.3-25.9-33c-4.2-4-9.7-9.4-16-7.3
		c-13.2,4.2-25.7,21.5-33.3,32.3c-16.9,24-27.7,53.3-33.1,82c-3,15.6-3,32.7-7,48c-1.5,5.9-6.9,10.2-10.4,15
		c-5.9,8-10.7,16.7-14.3,26c-6.4,16.5-8,33.4-7.8,51c0.1,5.4-0.3,15.3,3.1,19.7c3.1,4,8.5,0.8,11.9-1c10.2-5.4,20.2-10.7,31-14.9
		c34.3-13.3,71-18.6,107-9.4c13.2,3.3,26.3,8.4,38,15.4C303.3,457.2,310.6,464,315.9,462.2z M223,340.4c-28.9,6.7-41.1-37.2-12-43.9
		C239.5,289.8,251.6,333.7,223,340.4z"/>
</g>
<path class="st0" d="M210,462.3c-4.3,0.6-11.2,0.2-14.3,3.9c-2.9,3.6-1.7,10.3-1.7,14.7v35c0,33.4,1,66.6,1,100
	c0,8.4-3.9,30,1.7,36.6c4.8,5.6,29.3,3.3,36.3,2.2c7.6-1.2,7-7.6,7-13.8v-38v-100c0-8.6,3.8-29.9-1.6-36.7
	C233.4,459.9,217,461.4,210,462.3z"/>
</svg>
