<?xml version="1.0" encoding="utf-8"?>
<!-- Generator: Adobe Illustrator 19.0.0, SVG Export Plug-In . SVG Version: 6.00 Build 0)  -->
<svg version="1.1" id="Layer_1" xmlns="http://www.w3.org/2000/svg" xmlns:xlink="http://www.w3.org/1999/xlink" x="0px" y="0px"
	 viewBox="0 0 612 792" style="enable-background:new 0 0 612 792;" xml:space="preserve">
<style type="text/css">
	.st0{
		fill:url(#SVGID_1_);
	}
	.st1{
		fill:url(#SVGID_2_);
	}
	.st2{fill:#D29457;}
	.st3{opacity:0.39;enable-background:new    ;}
	.st4{fill:#939598;}
	.st5{fill:#F1F2F2;}
	.st6{fill:#191919;}
	.st7{
		fill:url(#SVGID_3_);
	}
	.st8{
		fill:url(#SVGID_4_);
	}

	.stop-grad{
		stop-color: rgba(0,0,0,0);
	}

	

</style>

<linearGradient id="SVGID_1_" gradientUnits="userSpaceOnUse" x1="323.1979" y1="755.6375" x2="323.1979" y2="366.4608">
	<stop  offset="0" class="stop-grad" />
	<stop  offset="0.5" class="stop-grad"/>
</linearGradient>
<rect x="289.2" y="366.5" class="st0" width="68" height="389.2"/>
<linearGradient id="SVGID_2_" gradientUnits="userSpaceOnUse" x1="248.5618" y1="755.6375" x2="248.5618" y2="411.1985">
	<stop  offset="0" class="stop-grad"/>
	<stop  offset="0.5" class="stop-grad"/>
</linearGradient>
<rect x="207.9" y="411.2" class="st1" width="81.3" height="344.4"/>
<g id="Layer_2">
	<g id="XMLID_20_">
		<path id="XMLID_2_" class="st2" d="M207.9,352.3V72.5c0,0,5-36.1,40.2-36.1s41.1,32.9,41.1,32.9v283.1L270.9,372h-43.4
			L207.9,352.3z"/>
		<path id="XMLID_6_" class="st3" d="M248.1,36.4c-35.2,0-40.2,36.1-40.2,36.1v279.9h12.8V74.3c0,0,16-47.5,68.5-5
			C289.2,69.3,283.3,36.4,248.1,36.4z"/>
		<polygon id="XMLID_4_" class="st4" points="227.5,372 207.9,411.2 289.2,411.2 270.9,372 		"/>
		<path id="XMLID_11_" class="st3" d="M227.5,372l-19.6,39.2h19.2c-6.6-11.5,3.8-39.2,3.8-39.2H227.5z"/>
		<path id="XMLID_5_" class="st5" d="M295.3,129.7c0,0,1.3-50.5,14.6-54.3c13.3-3.8,22.8,9.5,22.8,9.5l18.1,44.7v166.9l45.4,48.9
			l8,33.6l-52.7-36.8v7h-56.2L295.3,129.7L295.3,129.7z"/>
		<polygon id="XMLID_14_" class="st4" points="295.3,349.3 288.4,366.5 317.1,366.5 310.7,349.3 		"/>
		<path id="XMLID_12_" class="st3" d="M295.3,349.3l-6.9,17.2h6.8c-2.3-5,1.3-17.2,1.3-17.2H295.3z"/>
		<polygon id="XMLID_17_" class="st4" points="336.1,349.3 329.2,366.5 357.9,366.5 351.5,349.3 		"/>
		<path id="XMLID_16_" class="st3" d="M336.1,349.3l-6.9,17.2h6.8c-2.3-5,1.3-17.2,1.3-17.2H336.1z"/>
		<rect id="XMLID_15_" x="289.2" y="211.1" class="st4" width="6.1" height="7.6"/>
		<rect id="XMLID_18_" x="289.2" y="323.4" class="st4" width="6.1" height="7"/>
		<rect id="XMLID_19_" x="289.2" y="122" class="st4" width="6.5" height="8"/>
		<path id="XMLID_13_" class="st6" d="M318.4,150.7V75.2c-2.6-0.6-5.5-0.6-8.6,0.3c-13.3,3.8-14.6,54.3-14.6,54.3v219.6h3.1V150.7
			H318.4z"/>
		<polygon id="XMLID_7_" class="st6" points="339.2,100.8 336.5,122.7 345.4,124.6 346.8,119.8 		"/>
		<polygon id="XMLID_3_" class="st5" points="233,406.7 233,146.9 250.8,114.5 266.8,146.9 266.8,406.7 273.2,431.8 227.1,431.8 		
			"/>
		<polygon id="XMLID_8_" class="st3" points="239.4,148.2 252.9,118.7 250.8,114.5 233,146.9 233,406.7 227.1,431.8 230.7,431.8 
			239.4,405.3 		"/>
		<rect id="XMLID_1_" x="249.1" y="205.8" class="st3" width="17.7" height="2.5"/>
		<polygon id="XMLID_10_" class="st4" points="314.4,349.3 306.2,379.2 340,379.2 332.3,349.3 		"/>
		<path id="XMLID_9_" class="st3" d="M314.4,349.3l-8.1,29.8h8c-2.7-8.8,1.5-29.8,1.5-29.8H314.4z"/>
	</g>
</g>
<linearGradient id="SVGID_3_" gradientUnits="userSpaceOnUse" x1="250.135" y1="755.6375" x2="250.135" y2="431.7939">
	<stop class="stop-grad" offset="0"/>
	<stop class="stop-grad" offset="0.75" />
</linearGradient>
<rect x="227.1" y="431.8" class="st7" width="46.1" height="323.8"/>
<linearGradient id="SVGID_4_" gradientUnits="userSpaceOnUse" x1="323.1056" y1="755.6375" x2="323.1056" y2="379.1612">
	<stop class="stop-grad" offset="0" />
	<stop class="stop-grad" offset="0.75"/>
</linearGradient>
<rect x="306.3" y="379.2" class="st8" width="33.7" height="376.5"/>

</svg>
